<svg width="85" height="30" viewBox="0 0 85 30" fill="none" xmlns="http://www.w3.org/2000/svg">
<path d="M10.5795 12.7481C10.5794 12.0229 10.7596 11.3091 11.1038 10.6709C11.448 10.0326 11.9455 9.48992 12.5514 9.09162C13.1574 8.69331 13.8529 8.45187 14.5753 8.38902C15.2978 8.32617 16.0245 8.44388 16.6901 8.73157C17.3558 9.01925 17.9395 9.46788 18.3888 10.0371C18.838 10.6063 19.1387 11.2783 19.2639 11.9926C19.389 12.7069 19.3346 13.4411 19.1056 14.1291C18.8766 14.8172 18.4802 15.4375 17.952 15.9343C18.9479 16.4178 19.8126 17.1343 20.4727 18.0229C21.1329 18.9116 21.5692 19.9463 21.7445 21.0393C21.7638 21.161 21.7589 21.2852 21.7302 21.405C21.7015 21.5247 21.6494 21.6377 21.5771 21.7373C21.5047 21.837 21.4134 21.9214 21.3084 21.9858C21.2034 22.0501 21.0868 22.0932 20.9651 22.1125C20.8435 22.1318 20.7192 22.1269 20.5995 22.0982C20.4797 22.0694 20.3668 22.0174 20.2672 21.945C20.1675 21.8727 20.0831 21.7814 20.0187 21.6764C19.9543 21.5714 19.9113 21.4547 19.892 21.3331C19.7045 20.1585 19.1044 19.0892 18.1995 18.3172C17.2945 17.5453 16.144 17.1212 14.9545 17.1212C13.765 17.1212 12.6145 17.5453 11.7095 18.3172C10.8046 19.0892 10.2045 20.1585 10.017 21.3331C9.99763 21.4547 9.95449 21.5714 9.89005 21.6763C9.82561 21.7813 9.74112 21.8725 9.64141 21.9449C9.54171 22.0172 9.42873 22.0691 9.30894 22.0978C9.18915 22.1264 9.06489 22.1312 8.94325 22.1118C8.82162 22.0925 8.70499 22.0493 8.60002 21.9849C8.49505 21.9205 8.40381 21.836 8.3315 21.7363C8.25918 21.6365 8.20722 21.5236 8.17856 21.4038C8.14991 21.284 8.14513 21.1597 8.1645 21.0381C8.33922 19.9451 8.77525 18.9105 9.43552 18.0221C10.0958 17.1338 10.9608 16.418 11.957 15.9356C11.522 15.5264 11.1754 15.0326 10.9385 14.4844C10.7016 13.9362 10.5794 13.3453 10.5795 12.7481ZM21.8295 10.8731C22.5558 10.8736 23.2663 11.0849 23.8748 11.4814C24.4833 11.8779 24.9636 12.4425 25.2574 13.1067C25.5512 13.7708 25.646 14.506 25.5301 15.223C25.4142 15.9399 25.0926 16.6078 24.6045 17.1456C25.3658 17.5227 26.0422 18.0511 26.5924 18.6984C27.1426 19.3458 27.555 20.0985 27.8045 20.9106C27.8541 21.0682 27.861 21.2361 27.8247 21.3972C27.7884 21.5584 27.7101 21.7071 27.5977 21.8282C27.4854 21.9493 27.343 22.0385 27.185 22.0868C27.0271 22.1351 26.8591 22.1407 26.6983 22.1031C26.5374 22.0659 26.3893 21.9869 26.2688 21.8741C26.1483 21.7613 26.0597 21.6186 26.012 21.4606C25.7876 20.736 25.3793 20.082 24.8268 19.5624C24.2742 19.0427 23.5964 18.6752 22.8595 18.4956C22.6548 18.4462 22.4727 18.3293 22.3425 18.1638C22.2124 17.9982 22.1417 17.7937 22.142 17.5831V17.1431C22.1419 16.9686 22.1905 16.7975 22.2824 16.649C22.3742 16.5006 22.5057 16.3808 22.662 16.3031C23.041 16.1153 23.3453 15.8049 23.5256 15.4223C23.7058 15.0397 23.7514 14.6074 23.655 14.1956C23.5586 13.7838 23.3258 13.4167 22.9944 13.1539C22.663 12.8911 22.2524 12.7481 21.8295 12.7481C21.5809 12.7481 21.3424 12.6493 21.1666 12.4735C20.9908 12.2977 20.892 12.0592 20.892 11.8106C20.892 11.562 20.9908 11.3235 21.1666 11.1477C21.3424 10.9719 21.5809 10.8731 21.8295 10.8731ZM14.9545 10.2481C14.6216 10.2406 14.2905 10.2996 13.9807 10.4218C13.6709 10.544 13.3887 10.7268 13.1505 10.9596C12.9124 11.1924 12.7231 11.4704 12.5939 11.7773C12.4647 12.0842 12.3981 12.4138 12.398 12.7468C12.3979 13.0798 12.4643 13.4095 12.5934 13.7165C12.7225 14.0235 12.9116 14.3016 13.1496 14.5344C13.3877 14.7673 13.6698 14.9503 13.9796 15.0726C14.2893 15.195 14.6203 15.2542 14.9533 15.2468C15.6065 15.2324 16.228 14.9628 16.685 14.4958C17.1419 14.0288 17.3978 13.4014 17.398 12.7481C17.3981 12.0947 17.1425 11.4673 16.6858 11C16.2292 10.5328 15.6077 10.2629 14.9545 10.2481Z" fill="#070A1C" style="fill:#070A1C;fill:color(display-p3 0.0275 0.0392 0.1098);fill-opacity:1;"/>
<rect x="17.875" y="1.125" width="14.25" height="14.25" rx="7.125" fill="#FF4C4C" style="fill:#FF4C4C;fill:color(display-p3 1.0000 0.2980 0.2980);fill-opacity:1;"/>
<rect x="17.875" y="1.125" width="14.25" height="14.25" rx="7.125" stroke="white" style="stroke:white;stroke-opacity:1;" stroke-width="2.25"/>
<path d="M22.795 11.313V10.233L24.595 8.379C24.949 8.013 25.216 7.725 25.396 7.515C25.582 7.299 25.708 7.119 25.774 6.975C25.846 6.831 25.882 6.69 25.882 6.552C25.882 6.306 25.801 6.114 25.639 5.976C25.483 5.832 25.285 5.76 25.045 5.76C24.799 5.76 24.58 5.832 24.388 5.976C24.196 6.114 24.055 6.327 23.965 6.615L22.75 6.219C22.822 5.871 22.972 5.568 23.2 5.31C23.428 5.052 23.704 4.854 24.028 4.716C24.352 4.572 24.691 4.5 25.045 4.5C25.489 4.5 25.879 4.578 26.215 4.734C26.551 4.89 26.812 5.109 26.998 5.391C27.184 5.673 27.277 6.003 27.277 6.381C27.277 6.621 27.235 6.858 27.151 7.092C27.067 7.32 26.938 7.554 26.764 7.794C26.596 8.028 26.377 8.283 26.107 8.559L24.568 10.143H27.34V11.313H22.795Z" fill="white" style="fill:white;fill-opacity:1;"/>
<path d="M45.6197 18.602H46.4837V22.17H44.7397V20.25H38.6597V22.17H36.8197V18.602H37.4437C37.8064 18.602 38.0784 18.3993 38.2597 17.994C38.4517 17.578 38.5477 16.858 38.5477 15.834V9.05H45.6197V18.602ZM39.8277 18.602H43.7637V10.698H40.4357V15.802C40.4357 16.9433 40.233 17.8767 39.8277 18.602ZM52.1684 12.602C53.2351 12.602 54.0938 12.9647 54.7444 13.69C55.3951 14.4047 55.7204 15.3487 55.7204 16.522C55.7204 17.674 55.3791 18.618 54.6964 19.354C54.0138 20.0793 53.1338 20.442 52.0564 20.442C51.5658 20.442 51.1018 20.3353 50.6644 20.122C50.2271 19.898 49.8964 19.6047 49.6724 19.242V23.61H47.9284V12.794H49.6724V13.802C49.8964 13.4393 50.2378 13.1513 50.6964 12.938C51.1551 12.714 51.6458 12.602 52.1684 12.602ZM51.8004 18.89C52.4404 18.89 52.9631 18.6713 53.3684 18.234C53.7738 17.786 53.9764 17.2153 53.9764 16.522C53.9764 15.8287 53.7738 15.2633 53.3684 14.826C52.9631 14.378 52.4404 14.154 51.8004 14.154C51.1391 14.154 50.6058 14.3727 50.2004 14.81C49.7951 15.2473 49.5924 15.818 49.5924 16.522C49.5924 17.226 49.7951 17.7967 50.2004 18.234C50.6058 18.6713 51.1391 18.89 51.8004 18.89ZM62.3092 12.794H64.0532V20.282C64.0532 21.4233 63.7279 22.3087 63.0772 22.938C62.4479 23.514 61.6052 23.802 60.5492 23.802C59.4505 23.802 58.5972 23.546 57.9892 23.034C57.4559 22.5647 57.1785 21.9193 57.1572 21.098H58.9172C58.9599 21.5247 59.0985 21.8393 59.3332 22.042C59.5785 22.2553 59.9732 22.362 60.5172 22.362C61.0719 22.362 61.5092 22.1807 61.8292 21.818C62.1492 21.466 62.3092 20.9113 62.3092 20.154V19.21C61.8292 20.0313 61.0292 20.442 59.9092 20.442C59.0239 20.442 58.3412 20.1593 57.8612 19.594C57.3919 19.018 57.1572 18.266 57.1572 17.338V12.794H58.9012V16.97C58.9012 18.2607 59.4399 18.906 60.5172 18.906C61.1039 18.906 61.5465 18.698 61.8452 18.282C62.1545 17.866 62.3092 17.322 62.3092 16.65V12.794ZM67.3877 17.946C67.3877 18.2767 67.521 18.538 67.7877 18.73C68.065 18.922 68.4597 19.018 68.9717 19.018C69.889 19.018 70.3477 18.6873 70.3477 18.026C70.3477 17.77 70.241 17.562 70.0277 17.402C69.825 17.2313 69.5317 17.146 69.1477 17.146H68.0437V15.866H69.0517C69.3824 15.866 69.649 15.786 69.8517 15.626C70.065 15.4553 70.1717 15.2207 70.1717 14.922C70.1717 14.6553 70.049 14.4313 69.8037 14.25C69.569 14.0687 69.2597 13.978 68.8757 13.978C68.4064 13.978 68.0597 14.0793 67.8357 14.282C67.6117 14.474 67.4997 14.73 67.4997 15.05H65.7717C65.7717 14.314 66.0544 13.722 66.6197 13.274C67.185 12.826 67.9317 12.602 68.8597 12.602C69.7664 12.602 70.4917 12.794 71.0357 13.178C71.5904 13.562 71.8677 14.058 71.8677 14.666C71.8677 15.1673 71.7184 15.5673 71.4197 15.866C71.1317 16.154 70.7317 16.33 70.2197 16.394C70.753 16.458 71.1904 16.65 71.5317 16.97C71.873 17.2793 72.0437 17.7007 72.0437 18.234C72.0437 18.9273 71.7344 19.4713 71.1157 19.866C70.5077 20.25 69.7504 20.442 68.8437 20.442C67.8517 20.442 67.073 20.218 66.5077 19.77C65.9424 19.3113 65.6597 18.7033 65.6597 17.946H67.3877ZM75.4439 11.354C75.1986 11.5993 74.8893 11.722 74.5159 11.722C74.1426 11.722 73.8333 11.5993 73.5879 11.354C73.3426 11.098 73.2199 10.7887 73.2199 10.426C73.2199 10.0633 73.3426 9.75933 73.5879 9.514C73.8333 9.258 74.1426 9.13 74.5159 9.13C74.8893 9.13 75.1986 9.258 75.4439 9.514C75.6893 9.75933 75.8119 10.0633 75.8119 10.426C75.8119 10.7887 75.6893 11.098 75.4439 11.354ZM73.6359 20.25V12.794H75.3799V20.25H73.6359Z" fill="#070A1C" style="fill:#070A1C;fill:color(display-p3 0.0275 0.0392 0.1098);fill-opacity:1;"/>
</svg>
